<?xml version="1.0" encoding="iso-8859-1"?>
<!-- Generator: Adobe Illustrator 19.0.0, SVG Export Plug-In . SVG Version: 6.00 Build 0)  -->
<svg version="1.1" id="Capa_1" xmlns="http://www.w3.org/2000/svg" xmlns:xlink="http://www.w3.org/1999/xlink" x="0px" y="0px"
	 viewBox="0 0 512 512" style="enable-background:new 0 0 512 512;" xml:space="preserve">
<path style="fill:#87DCFA;" d="M508.856,256c0,138.761-112.281,252.856-252.856,252.856C115.791,508.856,3.145,395.106,3.145,256
	c0-139.649,113.207-252.856,252.856-252.856C395.909,3.144,508.856,116.591,508.856,256z"/>
<path style="fill:#DCD2CD;" d="M512,174.786v88.28c0,22.372-17.952,40.744-40.156,41.437c-0.431,0.01-0.871,0.021-1.302,0.021
	H41.458c-0.431,0-0.871-0.01-1.302-0.021c-3.969-0.126-7.8-0.809-11.411-1.984C12.115,297.122,0,281.438,0,263.066v-88.28
	c0-22.791,18.655-41.447,41.458-41.447h429.085c18.204,0,33.773,11.895,39.306,28.293C511.245,165.768,512,170.198,512,174.786z"/>
<path style="fill:#EBE1DC;" d="M512,174.786v88.28c0,22.372-17.952,40.744-40.156,41.437c-0.431,0.01-0.871,0.021-1.302,0.021
	H41.458c-0.431,0-0.871-0.01-1.302-0.021c-3.969-0.126-7.8-0.809-11.411-1.984c-1.396-4.136-2.152-8.566-2.152-13.165v-88.279
	c0-22.791,18.656-41.447,41.458-41.447h429.085c4.43,0,8.703,0.703,12.713,2.005C511.245,165.768,512,170.198,512,174.786z"/>
<path style="fill:#8C8787;" d="M471.844,274.708v29.794c-0.431,0.01-0.871,0.021-1.302,0.021H41.458
	c-0.431,0-0.871-0.01-1.302-0.021v-29.794c0-13.563,9.28-25.059,21.805-28.46c2.446-0.672,5.029-1.029,7.685-1.029h372.709
	c2.656,0,5.238,0.357,7.685,1.029C462.564,249.649,471.844,261.145,471.844,274.708z"/>
<path style="fill:#9B9696;" d="M471.844,295.652v8.85c-0.431,0.01-0.871,0.021-1.302,0.021H41.458c-0.431,0-0.871-0.01-1.302-0.021
	v-8.85c0-16.22,13.27-29.49,29.49-29.49h372.709C458.574,266.163,471.844,279.432,471.844,295.652z"/>
<g>
	<path style="fill:#736E6E;" d="M77.708,245.219v59.305H61.961v-58.277c2.446-0.672,5.029-1.029,7.685-1.029h8.063V245.219z"/>
	<rect x="115.143" y="245.217" style="fill:#736E6E;" width="15.744" height="59.305"/>
	<rect x="168.338" y="245.217" style="fill:#736E6E;" width="15.744" height="59.305"/>
	<rect x="221.534" y="245.217" style="fill:#736E6E;" width="15.744" height="59.305"/>
	<rect x="274.719" y="245.217" style="fill:#736E6E;" width="15.744" height="59.305"/>
	<rect x="327.914" y="245.217" style="fill:#736E6E;" width="15.744" height="59.305"/>
	<rect x="381.11" y="245.217" style="fill:#736E6E;" width="15.744" height="59.305"/>
	<path style="fill:#736E6E;" d="M450.039,246.247v58.276h-15.747v-59.305h8.063C445.011,245.219,447.593,245.575,450.039,246.247z"
		/>
</g>
<circle style="fill:#82CD64;" cx="418.728" cy="218.911" r="9.449"/>
<g>
	<circle style="fill:#64AFFF;" cx="450.039" cy="218.911" r="9.449"/>
	<path style="fill:#64AFFF;" d="M339.724,182.692H172.277c-4.349,0-7.873-3.525-7.873-7.873c0-4.349,3.526-7.873,7.873-7.873
		h167.447c4.349,0,7.873,3.525,7.873,7.873C347.597,179.166,344.072,182.692,339.724,182.692z"/>
</g>
<g>
	<path style="fill:#FFF5F5;" d="M174.828,395.24c4.31,0,7.805-3.493,7.805-7.805v-49.347c0-4.311-3.494-7.805-7.805-7.805
		c-4.31,0-7.805,3.493-7.805,7.805v49.347C167.024,391.745,170.518,395.24,174.828,395.24z"/>
	<path style="fill:#FFF5F5;" d="M254.955,330.283c-4.31,0-7.805,3.493-7.805,7.805v49.347c0,4.311,3.494,7.805,7.805,7.805
		c4.31,0,7.805-3.493,7.805-7.805v-49.347C262.759,333.777,259.265,330.283,254.955,330.283z"/>
	<path style="fill:#FFF5F5;" d="M337.173,395.24c4.31,0,7.805-3.493,7.805-7.805v-49.347c0-4.311-3.494-7.805-7.805-7.805
		c-4.31,0-7.805,3.493-7.805,7.805v49.347C329.368,391.745,332.861,395.24,337.173,395.24z"/>
	<path style="fill:#FFF5F5;" d="M214.692,330.283c-4.31,0-7.805,3.493-7.805,7.805v71.671c0,12.931-10.518,23.449-23.449,23.449
		h-12.455c-4.31,0-7.805,3.493-7.805,7.805s3.494,7.805,7.805,7.805h12.455c21.536,0,39.058-17.522,39.058-39.058v-71.671
		C222.496,333.777,219.002,330.283,214.692,330.283z"/>
	<path style="fill:#FFF5F5;" d="M338.701,433.208h-12.455c-12.929,0-23.449-10.518-23.449-23.449v-71.671
		c0-4.311-3.494-7.805-7.805-7.805c-4.31,0-7.805,3.493-7.805,7.805v71.671c0,21.536,17.521,39.058,39.058,39.058h12.455
		c4.31,0,7.805-3.493,7.805-7.805C346.506,436.703,343.011,433.208,338.701,433.208z"/>
	<path style="fill:#FFF5F5;" d="M134.965,330.283c-4.31,0-7.805,3.493-7.805,7.805v20.771c0,4.311,3.494,7.805,7.805,7.805
		s7.805-3.493,7.805-7.805v-20.771C142.77,333.777,139.275,330.283,134.965,330.283z"/>
	<path style="fill:#FFF5F5;" d="M377.036,330.283c-4.31,0-7.805,3.493-7.805,7.805v20.771c0,4.311,3.494,7.805,7.805,7.805
		c4.31,0,7.805-3.493,7.805-7.805v-20.771C384.841,333.777,381.346,330.283,377.036,330.283z"/>
	<path style="fill:#FFF5F5;" d="M353.263,47.003h-8.604V38.4c0-4.311-3.494-7.805-7.805-7.805c-4.31,0-7.805,3.493-7.805,7.805
		v8.604h-8.604c-4.311,0-7.805,3.494-7.805,7.805s3.493,7.805,7.805,7.805h8.604v8.604c0,4.311,3.494,7.805,7.805,7.805
		c4.31,0,7.805-3.493,7.805-7.805v-8.604h8.604c4.311,0,7.805-3.494,7.805-7.805S357.574,47.003,353.263,47.003z"/>
	<path style="fill:#FFF5F5;" d="M416.988,83.039h-8.604v-8.604c0-4.311-3.494-7.805-7.805-7.805s-7.805,3.493-7.805,7.805v8.604
		h-8.604c-4.311,0-7.805,3.494-7.805,7.805s3.493,7.805,7.805,7.805h8.604v8.604c0,4.311,3.494,7.805,7.805,7.805
		s7.805-3.493,7.805-7.805v-8.604h8.604c4.311,0,7.805-3.494,7.805-7.805S421.299,83.039,416.988,83.039z"/>
	<path style="fill:#FFF5F5;" d="M120,83.039h-8.604v-8.604c0-4.311-3.494-7.805-7.805-7.805c-4.31,0-7.805,3.493-7.805,7.805v8.604
		h-8.604c-4.311,0-7.805,3.494-7.805,7.805s3.493,7.805,7.805,7.805h8.604v8.604c0,4.311,3.494,7.805,7.805,7.805
		c4.31,0,7.805-3.493,7.805-7.805v-8.604H120c4.311,0,7.805-3.494,7.805-7.805S124.311,83.039,120,83.039z"/>
</g>
<g>
</g>
<g>
</g>
<g>
</g>
<g>
</g>
<g>
</g>
<g>
</g>
<g>
</g>
<g>
</g>
<g>
</g>
<g>
</g>
<g>
</g>
<g>
</g>
<g>
</g>
<g>
</g>
<g>
</g>
</svg>
